<?xml version="1.0" encoding="UTF-8" standalone="no"?>
<!-- Created with Inkscape (http://www.inkscape.org/) -->

<svg
   xmlns:dc="http://purl.org/dc/elements/1.1/"
   xmlns:cc="http://creativecommons.org/ns#"
   xmlns:rdf="http://www.w3.org/1999/02/22-rdf-syntax-ns#"
   xmlns:svg="http://www.w3.org/2000/svg"
   xmlns="http://www.w3.org/2000/svg"
   xmlns:sodipodi="http://sodipodi.sourceforge.net/DTD/sodipodi-0.dtd"
   xmlns:inkscape="http://www.inkscape.org/namespaces/inkscape"
   width="1052.3622"
   height="248.03149"
   viewBox="0 0 1052.3622 248.03136"
   id="svg2"
   version="1.1"
   inkscape:version="0.91 r"
   sodipodi:docname="logo-adaptable-final-name.svg">
  <defs
     id="defs4" />
  <sodipodi:namedview
     id="base"
     pagecolor="#ffffff"
     bordercolor="#666666"
     borderopacity="1.0"
     inkscape:pageopacity="0.0"
     inkscape:pageshadow="2"
     inkscape:zoom="0.69771608"
     inkscape:cx="302.22109"
     inkscape:cy="145.2246"
     inkscape:document-units="px"
     inkscape:current-layer="layer1"
     showgrid="false"
     inkscape:window-width="1366"
     inkscape:window-height="715"
     inkscape:window-x="0"
     inkscape:window-y="0"
     inkscape:window-maximized="1"
     showguides="true"
     inkscape:guide-bbox="true"
     units="px"
     height="209mm" />
  <metadata
     id="metadata7">
    <rdf:RDF>
      <cc:Work
         rdf:about="">
        <dc:format>image/svg+xml</dc:format>
        <dc:type
           rdf:resource="http://purl.org/dc/dcmitype/StillImage" />
        <dc:title />
      </cc:Work>
    </rdf:RDF>
  </metadata>
  <g
     inkscape:label="Layer 1"
     inkscape:groupmode="layer"
     id="layer1"
     transform="translate(0,-804.33108)">
    <g
       transform="scale(-1,1)"
       style="font-style:normal;font-weight:normal;font-size:37.39996338px;line-height:125%;font-family:sans-serif;letter-spacing:0px;word-spacing:0px;fill:#000000;fill-opacity:1;stroke:none;stroke-width:1px;stroke-linecap:butt;stroke-linejoin:miter;stroke-opacity:1"
       id="text5284" />
    <g
       transform="matrix(1,0,-0.7140254,0.32167587,135.57883,185.8875)"
       id="g5726"
       style="fill:#000000" />
    <g
       id="g5748"
       transform="matrix(1.2588253,0,0,1.2588253,-1402.2417,391.35025)">
      <path
         d="m 1897.1173,377.9197 c -6.4518,0 -12.3859,1.21146 -17.8008,3.63086 -5.2997,2.4194 -9.9074,5.70472 -13.8246,9.85229 -3.9171,4.03236 -6.9724,8.81257 -9.1614,14.34268 -2.1891,5.41487 -3.2815,11.17653 -3.2815,17.2827 0,6.56698 1.0924,12.61212 3.2815,18.1422 2.3042,5.4149 5.4745,10.14163 9.5069,14.17399 4.0323,4.03235 8.7551,7.19864 14.17,9.50288 5.5301,2.18899 11.5217,3.28543 17.9734,3.28543 9.5625,0 17.628,-2.13137 24.195,-6.39415 6.6822,-4.26278 11.9799,-9.85196 15.8971,-16.76458 l -18.8371,-9.33017 c -1.9586,3.57153 -4.6649,6.56533 -8.1212,8.98475 -3.3412,2.3042 -7.6038,3.45413 -12.7884,3.45413 -2.6498,0 -5.2411,-0.34496 -7.7757,-1.03625 -2.5347,-0.80641 -4.896,-2.01386 -7.085,-3.62683 -2.0738,-1.72815 -3.8602,-3.80202 -5.358,-6.22144 -1.3825,-2.53462 -2.3024,-5.53245 -2.7633,-8.98876 l 63.7689,0 c 0,-0.69128 0.057,-1.32372 0.1727,-1.89978 0,-0.57607 0.057,-1.20852 0.1728,-1.89978 l 0,-2.07648 c 0,-6.33658 -0.924,-12.20921 -2.7673,-17.62411 -1.8434,-5.4149 -4.5497,-10.08411 -8.1212,-14.00126 -3.5716,-4.03237 -8.0068,-7.14119 -13.3065,-9.33017 -5.2997,-2.30421 -11.3488,-3.45815 -18.1462,-3.45815 z m 0,18.49165 c 3.4564,0 6.3927,0.52148 8.8121,1.55837 2.5346,1.0369 4.6085,2.3593 6.2214,3.97224 1.7282,1.61295 2.9971,3.34186 3.8036,5.18523 0.9217,1.84337 1.4392,3.51476 1.5543,5.0125 l -40.9555,0 c 1.4977,-4.95406 4.089,-8.81431 7.7758,-11.57937 3.6867,-2.76504 7.9495,-4.14897 12.7883,-4.14897 z"
         style="font-style:normal;font-variant:normal;font-weight:bold;font-stretch:normal;font-size:medium;line-height:125%;font-family:'Product Sans';-inkscape-font-specification:'Product Sans Bold';letter-spacing:0px;word-spacing:0px;fill:#000000;fill-opacity:1;stroke:none;stroke-width:1px;stroke-linecap:butt;stroke-linejoin:miter;stroke-opacity:1"
         id="path5590"
         inkscape:connector-curvature="0" />
      <path
         d="m 1655.999,377.9197 c -15.5535,0 -27.8241,5.64666 -36.8106,16.93729 l 16.4192,11.23395 c 5.4149,-6.56701 12.0389,-9.85231 19.8732,-9.85231 5.2998,0 9.735,1.49893 13.3065,4.49439 3.5716,2.88027 5.3579,6.56804 5.3579,11.06125 l 0,2.59059 c -2.3042,-0.92168 -5.2446,-1.78412 -8.8161,-2.59059 -3.5715,-0.92168 -8.1217,-1.38166 -13.6518,-1.38166 -4.9541,0 -9.5617,0.68995 -13.8245,2.07248 -4.1476,1.26732 -7.7779,3.1687 -10.8886,5.70333 -3.1107,2.53463 -5.5295,5.58594 -7.2577,9.15747 -1.7281,3.45629 -2.5906,7.37407 -2.5906,11.75207 0,4.26279 0.805,8.18055 2.4179,11.75207 1.613,3.57153 3.8594,6.62284 6.7395,9.15746 2.8803,2.53464 6.2232,4.49351 10.0251,5.87604 3.9172,1.49775 8.065,2.2492 12.4429,2.2492 5.8757,0 10.656,-1.15393 14.3427,-3.45815 3.8019,-2.30421 7.0297,-5.06802 9.6795,-8.29391 l 1.3817,0 0,11.51911 22.2912,0 0,-53.3422 c 0,-12.0971 -3.4538,-21.19754 -10.3664,-27.3037 -6.9126,-6.22135 -16.937,-9.33418 -30.071,-9.33418 z m 0.6908,48.90807 c 3.3411,0 6.3924,0.40244 9.1575,1.20893 2.8803,0.69126 5.6481,1.67273 8.2979,2.94003 0,2.53466 -0.5214,5.01099 -1.5583,7.4304 -0.9218,2.30421 -2.3016,4.37808 -4.145,6.22145 -1.7282,1.72816 -3.8595,3.16959 -6.3942,4.32169 -2.5346,1.03688 -5.2984,1.55436 -8.2938,1.55436 -3.6869,0 -6.9722,-1.03894 -9.8524,-3.11274 -2.7651,-2.07378 -4.149,-4.83761 -4.149,-8.29393 0,-3.45632 1.4414,-6.33513 4.3217,-8.63934 2.9955,-2.41943 7.2008,-3.63085 12.6156,-3.63085 z"
         style="font-style:normal;font-variant:normal;font-weight:bold;font-stretch:normal;font-size:medium;line-height:125%;font-family:'Product Sans';-inkscape-font-specification:'Product Sans Bold';letter-spacing:0px;word-spacing:0px;fill:#000000;fill-opacity:1;stroke:none;stroke-width:1px;stroke-linecap:butt;stroke-linejoin:miter;stroke-opacity:1"
         id="path5593"
         inkscape:connector-curvature="0" />
      <path
         sodipodi:nodetypes="csccccccccsscccscccccsccsssccscscssscs"
         d="m 1502.7441,377.9197 c -6.4518,0 -11.8645,1.26892 -16.2424,3.80357 -4.3749,2.53279 -7.6017,5.5812 -9.6756,9.14942 l 0,-10.18968 -22.6407,0 0,0.004 0,130.85453 22.6367,0 0,0 0,-56.36181 c 2.0739,3.56821 5.3007,6.61664 9.6756,9.14943 4.378,2.53464 9.7906,3.80356 16.2424,3.80356 5.4149,0 10.544,-1.09651 15.3829,-3.28542 4.954,-2.30421 9.2743,-5.41304 12.961,-9.33017 3.802,-4.03238 6.7958,-8.8166 8.9848,-14.3467 2.1889,-5.53008 3.2854,-11.57522 3.2854,-18.14221 0,-6.567 -1.0965,-12.61612 -3.2854,-18.14623 -2.189,-5.53011 -5.1828,-10.25682 -8.9848,-14.17399 -3.6867,-4.03235 -8.007,-7.14117 -12.961,-9.33015 -4.8389,-2.30423 -9.968,-3.45815 -15.3829,-3.45815 z m -4.6631,20.91355 c 2.9955,0 5.8168,0.57496 8.4667,1.72707 2.7651,1.15209 5.1838,2.76599 7.2576,4.83979 2.0738,2.07379 3.7452,4.60763 5.0125,7.60311 1.2673,2.99548 1.8998,6.33828 1.8998,10.02501 0,3.68674 -0.6325,7.02553 -1.8998,10.02098 -1.2673,2.99549 -2.9387,5.52932 -5.0125,7.60311 -2.0738,2.07379 -4.4925,3.6877 -7.2576,4.83981 -2.6499,1.1521 -5.4712,1.72705 -8.4667,1.72705 -2.9955,0 -5.8783,-0.51745 -8.6433,-1.55436 -2.6499,-1.1521 -5.0112,-2.76602 -7.085,-4.8398 -2.0738,-2.07379 -3.7412,-4.60762 -5.0085,-7.60309 -1.2673,-2.99548 -1.9038,-6.39177 -1.9038,-10.1937 0,-3.80196 0.6365,-7.20225 1.9038,-10.19773 1.2673,-2.99548 2.9347,-5.52932 5.0085,-7.60309 2.0738,-2.07381 4.4351,-3.6302 7.085,-4.66709 2.765,-1.15211 5.6478,-1.72707 8.6433,-1.72707 z"
         style="font-style:normal;font-variant:normal;font-weight:bold;font-stretch:normal;font-size:medium;line-height:125%;font-family:'Product Sans';-inkscape-font-specification:'Product Sans Bold';letter-spacing:0px;word-spacing:0px;fill:#000000;fill-opacity:1;stroke:none;stroke-width:1px;stroke-linecap:butt;stroke-linejoin:miter;stroke-opacity:1"
         id="path5595"
         inkscape:connector-curvature="0" />
      <path
         d="m 1396.4372,377.9197 c -15.5534,0 -27.8241,5.64666 -36.8106,16.93729 l 16.4192,11.23395 c 5.4149,-6.56701 12.039,-9.85231 19.8733,-9.85231 5.2997,0 9.7349,1.49893 13.3064,4.49439 3.5716,2.88027 5.3579,6.56804 5.3579,11.06125 l 0,2.59059 c -2.3042,-0.92168 -5.2405,-1.78412 -8.812,-2.59059 -3.5715,-0.92168 -8.1258,-1.38166 -13.6559,-1.38166 -4.954,0 -9.5618,0.68995 -13.8245,2.07248 -4.1476,1.26732 -7.7779,3.1687 -10.8886,5.70333 -3.1106,2.53463 -5.5295,5.58594 -7.2576,9.15747 -1.7282,3.45629 -2.5906,7.37407 -2.5906,11.75207 0,4.26279 0.8049,8.18055 2.4178,11.75207 1.613,3.57153 3.8594,6.62284 6.7396,9.15746 2.8803,2.53464 6.2231,4.49351 10.025,5.87604 3.9172,1.49775 8.0649,2.2492 12.4429,2.2492 5.8758,0 10.656,-1.15393 14.3427,-3.45815 3.802,-2.30421 7.0297,-5.06802 9.6796,-8.29391 l 1.3816,0 0,11.51911 22.2912,0 0,-53.3422 c 0,-12.0971 -3.4538,-21.19754 -10.3664,-27.3037 -6.9126,-6.22135 -16.937,-9.33418 -30.071,-9.33418 z m 0.6908,48.90807 c 3.3412,0 6.3965,0.40244 9.1615,1.20893 2.8803,0.69126 5.6441,1.67273 8.2939,2.94003 0,2.53466 -0.5174,5.01099 -1.5543,7.4304 -0.9217,2.30421 -2.3056,4.37808 -4.149,6.22145 -1.7281,1.72816 -3.8595,3.16959 -6.3941,4.32169 -2.5347,1.03688 -5.2985,1.55436 -8.294,1.55436 -3.6867,0 -6.972,-1.03894 -9.8523,-3.11274 -2.765,-2.07378 -4.1449,-4.83761 -4.1449,-8.29393 0,-3.45632 1.4374,-6.33513 4.3177,-8.63934 2.9954,-2.41943 7.2007,-3.63085 12.6155,-3.63085 z"
         style="font-style:normal;font-variant:normal;font-weight:bold;font-stretch:normal;font-size:medium;line-height:125%;font-family:'Product Sans';-inkscape-font-specification:'Product Sans Bold';letter-spacing:0px;word-spacing:0px;fill:#000000;fill-opacity:1;stroke:none;stroke-width:1px;stroke-linecap:butt;stroke-linejoin:miter;stroke-opacity:1"
         id="path5597"
         inkscape:connector-curvature="0" />
      <path
         sodipodi:nodetypes="cccccsccsccccsccscccccc"
         inkscape:connector-curvature="0"
         id="path5599"
         d="m 1563.7777,354.76497 0,25.92204 -14.8608,0 0,19.35518 14.8608,0 0,38.42217 c 0,9.56248 2.7104,16.93402 8.1253,22.11848 2.3042,2.3042 5.1255,4.14805 8.4666,5.53063 3.4563,1.26729 7.3167,1.89976 11.5793,1.89976 3.6869,0 7.0296,-0.34498 10.0251,-1.03623 3.1107,-0.57606 5.9895,-1.49599 8.6393,-2.7633 l -6.3941,-19.87331 c -1.0369,0.69126 -2.1333,1.26624 -3.2855,1.72708 -1.152,0.34562 -2.7045,0.51811 -4.6631,0.51811 -2.9954,0 -5.2992,-0.91994 -6.9122,-2.7633 -1.1521,-1.1521 -1.9611,-2.53601 -2.4219,-4.14898 -0.3457,-1.72814 -0.5181,-3.57204 -0.5181,-5.53062 l 0,-34.10049 20.7368,0 0,-19.35518 -20.7368,0 0,-25.92204 z"
         style="font-style:normal;font-variant:normal;font-weight:bold;font-stretch:normal;font-size:medium;line-height:125%;font-family:'Product Sans';-inkscape-font-specification:'Product Sans Bold';letter-spacing:0px;word-spacing:0px;fill:#000000;fill-opacity:1;stroke:none;stroke-width:1px;stroke-linecap:butt;stroke-linejoin:miter;stroke-opacity:1" />
      <path
         id="path5601"
         d="m 1817.0458,341.63126 0,126.26852 22.6406,0 0,-126.26852 -22.6406,0 z"
         style="font-style:normal;font-variant:normal;font-weight:bold;font-stretch:normal;font-size:medium;line-height:125%;font-family:'Product Sans';-inkscape-font-specification:'Product Sans Bold';letter-spacing:0px;word-spacing:0px;fill:#000000;fill-opacity:1;stroke:none;stroke-width:1px;stroke-linecap:butt;stroke-linejoin:miter;stroke-opacity:1"
         inkscape:connector-curvature="0" />
      <path
         d="m 1714.43,341.63126 0,126.26852 0.01,0 21.255,0 1.3776,0 0,-12.72806 0,0 c 2.0738,3.57151 5.3016,6.62282 9.6796,9.15745 4.378,2.53463 9.7906,3.80356 16.2425,3.80356 5.4148,0 10.544,-1.09651 15.3828,-3.28543 4.9541,-2.30424 9.2744,-5.41303 12.9611,-9.33016 3.8019,-4.03238 6.7957,-8.8166 8.9847,-14.34671 2.189,-5.53008 3.2855,-11.57522 3.2855,-18.1422 0,-6.56701 -1.0965,-12.61613 -3.2855,-18.14624 -2.189,-5.53009 -5.1828,-10.25682 -8.9847,-14.17397 -3.6867,-4.03237 -8.007,-7.14119 -12.9611,-9.33017 -4.8388,-2.30421 -9.968,-3.45815 -15.3828,-3.45815 -6.4519,0 -11.8645,1.26892 -16.2425,3.80357 -4.378,2.53462 -7.6058,5.5859 -9.6796,9.15743 l 0,0 0,-12.05731 0,-0.0362 0,-37.15599 0,0 -22.6326,0 -0.01,0 z m 43.9036,57.20199 c 2.9955,0 5.8168,0.57496 8.4667,1.72707 2.765,1.15209 5.1839,2.76599 7.2576,4.83979 2.0738,2.07379 3.7452,4.60763 5.0125,7.60311 1.2674,2.99548 1.8998,6.33828 1.8998,10.02501 0,3.68674 -0.6324,7.02553 -1.8998,10.02098 -1.2673,2.99549 -2.9387,5.52932 -5.0125,7.60311 -2.0737,2.07379 -4.4926,3.6877 -7.2576,4.83981 -2.6499,1.1521 -5.4712,1.72705 -8.4667,1.72705 -2.9954,0 -5.8783,-0.51745 -8.6434,-1.55436 -2.6498,-1.1521 -5.0112,-2.76602 -7.0849,-4.8398 -2.0739,-2.07379 -3.7452,-4.60762 -5.0125,-7.60309 -1.2674,-2.99548 -1.8998,-6.39177 -1.8998,-10.1937 0,-3.80196 0.6324,-7.20225 1.8998,-10.19773 1.2673,-2.99548 2.9386,-5.52932 5.0125,-7.60309 2.0737,-2.07381 4.4351,-3.6302 7.0849,-4.66709 2.7651,-1.15211 5.648,-1.72707 8.6434,-1.72707 z"
         style="font-style:normal;font-variant:normal;font-weight:bold;font-stretch:normal;font-size:medium;line-height:125%;font-family:'Product Sans';-inkscape-font-specification:'Product Sans Bold';letter-spacing:0px;word-spacing:0px;fill:#000000;fill-opacity:1;stroke:none;stroke-width:1px;stroke-linecap:butt;stroke-linejoin:miter;stroke-opacity:1"
         id="path5603"
         inkscape:connector-curvature="0" />
      <path
         d="m 1321.4786,341.63126 0,37.156 0,12.09344 c -2.0738,-3.5715 -5.3016,-6.62281 -9.6796,-9.15743 -4.378,-2.53465 -9.7907,-3.80357 -16.2425,-3.80357 -5.4148,0 -10.6016,1.15394 -15.5556,3.45815 -4.8388,2.18898 -9.1591,5.2978 -12.961,9.33017 -3.6867,3.91715 -6.6231,8.64388 -8.812,14.17397 -2.1891,5.53011 -3.2815,11.57923 -3.2815,18.14624 0,6.56698 1.0924,12.61212 3.2815,18.1422 2.1889,5.53011 5.1253,10.31433 8.812,14.34671 3.8019,3.91713 8.1222,7.02583 12.961,9.33016 4.954,2.18897 10.1408,3.28543 15.5556,3.28543 6.4518,0 11.8645,-1.26893 16.2425,-3.80356 4.378,-2.53463 7.6058,-5.58594 9.6796,-9.15745 l 0,12.72806 1.3817,0 21.2589,0 0,-126.26852 -22.6406,0 z m -21.255,57.20199 c 2.9955,0 5.8168,0.57496 8.4667,1.72707 2.765,1.03689 5.1839,2.59328 7.2577,4.66709 2.0738,2.07377 3.7452,4.60761 5.0125,7.60309 1.2673,2.99548 1.8998,6.39577 1.8998,10.19773 0,3.80193 -0.6325,7.19822 -1.8998,10.1937 -1.2673,2.99547 -2.9387,5.5293 -5.0125,7.60309 -2.0738,2.07378 -4.4927,3.6877 -7.2577,4.8398 -2.6499,1.03691 -5.4712,1.55436 -8.4667,1.55436 -2.9954,0 -5.8783,-0.57495 -8.6433,-1.72705 -2.6499,-1.15211 -5.0112,-2.76602 -7.085,-4.83981 -2.0738,-2.07379 -3.7452,-4.60762 -5.0125,-7.60311 -1.2673,-2.99545 -1.8998,-6.33424 -1.8998,-10.02098 0,-3.68673 0.6325,-7.02953 1.8998,-10.02501 1.2673,-2.99548 2.9387,-5.52932 5.0125,-7.60311 2.0738,-2.0738 4.4351,-3.6877 7.085,-4.83979 2.765,-1.15211 5.6479,-1.72707 8.6433,-1.72707 z"
         style="font-style:normal;font-variant:normal;font-weight:bold;font-stretch:normal;font-size:medium;line-height:125%;font-family:'Product Sans';-inkscape-font-specification:'Product Sans Bold';letter-spacing:0px;word-spacing:0px;fill:#000000;fill-opacity:1;stroke:none;stroke-width:1px;stroke-linecap:butt;stroke-linejoin:miter;stroke-opacity:1"
         id="path5605"
         inkscape:connector-curvature="0" />
      <g
         style="font-style:normal;font-weight:normal;font-size:38.06298447px;line-height:125%;font-family:sans-serif;letter-spacing:0px;word-spacing:0px;fill:#666666;fill-opacity:1;stroke:none;stroke-width:1px;stroke-linecap:butt;stroke-linejoin:miter;stroke-opacity:1"
         id="text5617">
        <path
           d="m 1495.2416,484.93551 6.0901,0 4.7578,17.20447 4.6818,-17.20447 4.4533,0 4.5295,17.20447 4.7579,-17.20447 6.052,0 -7.4603,26.60602 -5.443,0 -4.7579,-16.8619 -4.7198,16.8619 -5.4811,0 -7.4603,-26.60602 z"
           style="font-style:normal;font-variant:normal;font-weight:600;font-stretch:normal;font-family:Prompt;-inkscape-font-specification:'Prompt Semi-Bold';letter-spacing:4.4296608px;fill:#666666"
           id="path4197" />
        <path
           d="m 1538.1981,484.93551 18.4606,0 0,4.834 -12.675,0 0,6.1662 9.3254,0 0,4.64368 -9.3254,0 0,6.12815 12.675,0 0,4.83399 -18.4606,0 0,-26.60602 z"
           style="font-style:normal;font-variant:normal;font-weight:600;font-stretch:normal;font-family:Prompt;-inkscape-font-specification:'Prompt Semi-Bold';letter-spacing:4.4296608px;fill:#666666"
           id="path4199" />
        <path
           d="m 1591.5227,484.93551 5.6714,0 10.6196,26.60602 -5.8998,0 -2.2838,-5.78557 -10.5434,0 -2.2838,5.78557 -5.9378,0 10.6576,-26.60602 z m 6.5849,16.21483 -3.7682,-10.12475 -3.7682,10.12475 7.5364,0 z"
           style="font-style:normal;font-variant:normal;font-weight:600;font-stretch:normal;font-family:Prompt;-inkscape-font-specification:'Prompt Semi-Bold';letter-spacing:4.4296608px;fill:#666666"
           id="path4201" />
        <path
           d="m 1615.421,484.93551 11.5331,0 q 4.5295,0 7.0417,2.28378 2.5502,2.24571 2.5502,6.50877 0,2.96891 -1.3703,5.06237 -1.3703,2.05541 -3.8824,3.00698 l 5.0624,9.74412 -5.9379,0 -4.6817,-9.02092 -4.5295,0 0,9.02092 -5.7856,0 0,-26.60602 z m 10.5054,12.7511 q 2.2077,0 3.4637,-0.95158 1.2942,-0.95157 1.2942,-3.00697 0,-2.16959 -1.2561,-3.04504 -1.2561,-0.91351 -3.5018,-0.91351 l -4.7198,0 0,7.9171 4.7198,0 z"
           style="font-style:normal;font-variant:normal;font-weight:600;font-stretch:normal;font-family:Prompt;-inkscape-font-specification:'Prompt Semi-Bold';letter-spacing:4.4296608px;fill:#666666"
           id="path4203" />
        <path
           d="m 1644.2348,484.93551 18.4605,0 0,4.834 -12.675,0 0,6.1662 9.3255,0 0,4.64368 -9.3255,0 0,6.12815 12.675,0 0,4.83399 -18.4605,0 0,-26.60602 z"
           style="font-style:normal;font-variant:normal;font-weight:600;font-stretch:normal;font-family:Prompt;-inkscape-font-specification:'Prompt Semi-Bold';letter-spacing:4.4296608px;fill:#666666"
           id="path4205" />
        <path
           d="m 1697.5594,484.93551 5.6714,0 10.6196,26.60602 -5.8998,0 -2.2838,-5.78557 -10.5434,0 -2.2838,5.78557 -5.9378,0 10.6576,-26.60602 z m 6.5849,16.21483 -3.7682,-10.12475 -3.7683,10.12475 7.5365,0 z"
           style="font-style:normal;font-variant:normal;font-weight:600;font-stretch:normal;font-family:Prompt;-inkscape-font-specification:'Prompt Semi-Bold';letter-spacing:4.4296608px;fill:#666666"
           id="path4207" />
        <path
           d="m 1721.4577,484.93551 9.2493,0 q 4.3392,0 7.5745,1.59864 3.2354,1.59865 4.9863,4.56756 1.7509,2.96891 1.7509,7.00359 0,6.62296 -3.8825,10.04863 -3.8443,3.3876 -10.7337,3.3876 l -8.9448,0 0,-26.60602 z m 9.2493,21.77203 q 4.0727,0 6.2423,-2.28378 2.1696,-2.28378 2.1696,-6.31846 0,-2.39797 -0.9516,-4.30112 -0.9515,-1.90315 -2.7786,-2.96891 -1.827,-1.06576 -4.3011,-1.06576 l -3.8443,0 0,16.93803 3.4637,0 z"
           style="font-style:normal;font-variant:normal;font-weight:600;font-stretch:normal;font-family:Prompt;-inkscape-font-specification:'Prompt Semi-Bold';letter-spacing:4.4296608px;fill:#666666"
           id="path4209" />
        <path
           d="m 1760.0935,484.93551 5.6714,0 10.6195,26.60602 -5.8997,0 -2.2838,-5.78557 -10.5435,0 -2.2837,5.78557 -5.9379,0 10.6577,-26.60602 z m 6.5849,16.21483 -3.7683,-10.12475 -3.7682,10.12475 7.5365,0 z"
           style="font-style:normal;font-variant:normal;font-weight:600;font-stretch:normal;font-family:Prompt;-inkscape-font-specification:'Prompt Semi-Bold';letter-spacing:4.4296608px;fill:#666666"
           id="path4211" />
        <path
           d="m 1783.9918,484.93551 11.1905,0 q 4.5295,0 7.2319,2.39797 2.7025,2.3599 2.7025,6.58489 0,4.33918 -2.7025,6.66102 -2.6644,2.32185 -7.2319,2.32185 l -5.405,0 0,8.64029 -5.7855,0 0,-26.60602 z m 10.3531,13.13173 q 4.9101,0 4.9101,-4.14887 0,-2.32184 -1.3322,-3.23535 -1.2941,-0.91351 -3.5779,-0.91351 l -4.5676,0 0,8.29773 4.5676,0 z"
           style="font-style:normal;font-variant:normal;font-weight:600;font-stretch:normal;font-family:Prompt;-inkscape-font-specification:'Prompt Semi-Bold';letter-spacing:4.4296608px;fill:#666666"
           id="path4213" />
        <path
           d="m 1817.6009,489.76951 -7.7649,0 0,-4.834 21.3153,0 0,4.834 -7.7649,0 0,21.77202 -5.7855,0 0,-21.77202 z"
           style="font-style:normal;font-variant:normal;font-weight:600;font-stretch:normal;font-family:Prompt;-inkscape-font-specification:'Prompt Semi-Bold';letter-spacing:4.4296608px;fill:#666666"
           id="path4215" />
        <path
           d="m 1843.2637,484.93551 5.6714,0 10.6196,26.60602 -5.8998,0 -2.2838,-5.78557 -10.5434,0 -2.2838,5.78557 -5.9378,0 10.6576,-26.60602 z m 6.5849,16.21483 -3.7682,-10.12475 -3.7683,10.12475 7.5365,0 z"
           style="font-style:normal;font-variant:normal;font-weight:600;font-stretch:normal;font-family:Prompt;-inkscape-font-specification:'Prompt Semi-Bold';letter-spacing:4.4296608px;fill:#666666"
           id="path4217" />
        <path
           d="m 1867.162,484.93551 13.0556,0 q 3.7682,0 5.8998,1.86508 2.1315,1.86509 2.1315,5.40495 0,1.78896 -0.8374,3.27341 -0.8374,1.4464 -2.2838,2.24572 1.9793,0.7232 2.9689,2.20765 0.9897,1.4464 0.9897,3.8063 0,2.39797 -1.1039,4.18693 -1.0657,1.7509 -2.9689,2.70247 -1.8651,0.91351 -4.1488,0.91351 l -13.7027,0 0,-26.60602 z m 11.9518,10.80989 q 1.5225,0 2.3979,-0.76126 0.8755,-0.76126 0.8755,-2.43603 0,-1.82703 -0.8755,-2.51216 -0.8374,-0.68514 -2.5883,-0.68514 l -5.9758,0 0,6.39459 6.1662,0 z m 0.3425,11.38083 q 1.8651,0 2.8167,-0.7232 0.9896,-0.76126 0.9896,-2.62634 0,-1.90315 -1.0277,-2.74054 -0.9896,-0.83738 -2.9689,-0.83738 l -6.3184,0 0,6.92746 6.5087,0 z"
           style="font-style:normal;font-variant:normal;font-weight:600;font-stretch:normal;font-family:Prompt;-inkscape-font-specification:'Prompt Semi-Bold';letter-spacing:4.4296608px;fill:#666666"
           id="path4219" />
        <path
           d="m 1896.7192,484.93551 5.7855,0 0,21.77203 12.1802,0 0,4.83399 -17.9657,0 0,-26.60602 z"
           style="font-style:normal;font-variant:normal;font-weight:600;font-stretch:normal;font-family:Prompt;-inkscape-font-specification:'Prompt Semi-Bold';letter-spacing:4.4296608px;fill:#666666"
           id="path4221" />
        <path
           d="m 1920.9981,484.93551 18.4605,0 0,4.834 -12.675,0 0,6.1662 9.3255,0 0,4.64368 -9.3255,0 0,6.12815 12.675,0 0,4.83399 -18.4605,0 0,-26.60602 z"
           style="font-style:normal;font-variant:normal;font-weight:600;font-stretch:normal;font-family:Prompt;-inkscape-font-specification:'Prompt Semi-Bold';letter-spacing:4.4296608px;fill:#666666"
           id="path4223" />
      </g>
      <g
         transform="matrix(0.5362455,0,0,0.5362455,379.83843,321.17792)"
         id="g5691">
        <path
           sodipodi:nodetypes="ccccc"
           inkscape:connector-curvature="0"
           d="m 1426.6176,201.76847 45.5433,0 -36.8756,72.27088 -46.8393,0 z"
           style="fill:#000000;fill-opacity:1;fill-rule:evenodd;stroke:none;stroke-width:1px;stroke-linecap:butt;stroke-linejoin:miter;stroke-opacity:1"
           id="path5693" />
        <path
           inkscape:connector-curvature="0"
           id="path5695"
           transform="translate(0,-435.82677)"
           d="m 1512.7734,473.96484 -69.3515,128.36719 136.2461,0 -66.8946,-128.36719 z"
           style="font-style:normal;font-variant:normal;font-weight:500;font-stretch:normal;font-size:medium;line-height:125%;font-family:Futura;-inkscape-font-specification:'Futura Medium';letter-spacing:0px;word-spacing:0px;opacity:1;fill:#2979ff;fill-opacity:1;stroke:none;stroke-width:1px;stroke-linecap:butt;stroke-linejoin:miter;stroke-opacity:1" />
        <path
           id="path5697"
           style="fill:#000000;fill-opacity:1;fill-rule:evenodd;stroke:none;stroke-width:1px;stroke-linecap:butt;stroke-linejoin:miter;stroke-opacity:1"
           d="m 1596.9723,201.76847 -45.5433,0 36.8756,72.27088 46.8393,0 z"
           inkscape:connector-curvature="0"
           sodipodi:nodetypes="ccccc" />
      </g>
    </g>
  </g>
</svg>
